<?xml version="1.0" encoding="UTF-8" standalone="no"?>
<svg
   xmlns:dc="http://purl.org/dc/elements/1.1/"
   xmlns:cc="http://creativecommons.org/ns#"
   xmlns:rdf="http://www.w3.org/1999/02/22-rdf-syntax-ns#"
   xmlns:svg="http://www.w3.org/2000/svg"
   xmlns="http://www.w3.org/2000/svg"
   id="svg4208"
   xml:space="preserve"
   enable-background="new 0 0 100 100"
   viewBox="0 0 100 100"
   height="100px"
   width="100px"
   y="0px"
   x="0px"
   version="1.1"><metadata
     id="metadata4224"><rdf:RDF><cc:Work
         rdf:about=""><dc:format>image/svg+xml</dc:format><dc:type
           rdf:resource="http://purl.org/dc/dcmitype/StillImage" /><dc:title></dc:title></cc:Work></rdf:RDF></metadata><defs
     id="defs4222" /><g
     id="placeholder"><rect
       id="rect4211"
       height="100"
       width="100"
       x="0"
       y="0"
       style="fill:none" /></g><g
     id="flowRoot4304"
     style="font-style:normal;font-weight:normal;font-size:40px;line-height:125%;font-family:sans-serif;text-align:start;letter-spacing:0px;word-spacing:0px;writing-mode:lr-tb;text-anchor:start;fill:#000000;fill-opacity:1;stroke:none;stroke-width:1px;stroke-linecap:butt;stroke-linejoin:miter;stroke-opacity:1"
     transform="matrix(0,-3.582846,3.582846,0,20.549002,294.8517)"><path
       id="path4353"
       style="font-style:normal;font-variant:normal;font-weight:normal;font-stretch:normal;font-family:GIBSON;-inkscape-font-specification:GIBSON"
       d="M 76.56,5.24 C 75.64,6.76 74.32,8.04 72.72,8.04 71.44,8.04 70.04,7.32 68.8,6.68 67.56,6.04 66,5.2 64.04,5.2 c -2.68,0 -4.68,1.96 -5.96,4.04 l 1.02,0.98 1.02,0.98 c 0.92,-1.48 2.24,-2.8 3.84,-2.8 1.32,0 2.68,0.76 3.92,1.36 1.28,0.64 2.8,1.48 4.76,1.48 2.72,0 4.68,-1.92 5.96,-4.04 L 77.58,6.22 Z" /></g><g
     id="placeholder-4-4"><rect
       style="fill:none"
       y="0"
       x="0"
       id="rect4211-1-4"
       height="100"
       width="100" /></g></svg>